<?xml version="1.0" encoding="UTF-8" standalone="no"?>
<svg viewBox="0 0 180 180" version="1.1" xmlns="http://www.w3.org/2000/svg">
   <defs>
      <!-- #region Solid gradients -->
      <linearGradient id="a" gradientUnits="userSpaceOnUse" x1="27.5" y1="3" x2="152" y2="63.5">
         <stop offset=".1" stop-color="#76b3e1" />
         <stop offset=".3" stop-color="#dcf2fd" />
         <stop offset="1" stop-color="#76b3e1" />
      </linearGradient>
      <linearGradient id="b" gradientUnits="userSpaceOnUse" x1="95.8" y1="32.6" x2="74" y2="105.2">
         <stop offset="0" stop-color="#76b3e1" />
         <stop offset=".5" stop-color="#4377bb" />
         <stop offset="1" stop-color="#1f3b77" />
      </linearGradient>
      <linearGradient id="c" gradientUnits="userSpaceOnUse" x1="18.4" y1="64.2" x2="144.3" y2="149.8">
         <stop offset="0" stop-color="#315aa9" />
         <stop offset=".5" stop-color="#518ac8" />
         <stop offset="1" stop-color="#315aa9" />
      </linearGradient>
      <linearGradient id="d" gradientUnits="userSpaceOnUse" x1="75.2" y1="74.5" x2="24.4" y2="260.8">
         <stop offset="0" stop-color="#4377bb" />
         <stop offset=".5" stop-color="#1a336b" />
         <stop offset="1" stop-color="#1a336b" />
      </linearGradient>
      <!-- #endregion Solid gradients -->
      <!-- #region Plus gradients -->
      <linearGradient id="e" gradientUnits="userSpaceOnUse" y2="9.7" x2="70" y1="150.3" x1="70">
         <stop offset="0" stop-color="#75e1a4" />
         <stop offset=".5" stop-color="#31aa80" />
         <stop offset="1" stop-color="#1a6b51" />
      </linearGradient>
      <!-- #endregion Plus gradients -->
   </defs>
   <!-- #region Solid shape -->
   <g transform="translate(6.5,12.371728)">
      <path d="M163 35S110-4 69 5l-3 1c-6 2-11 5-14 9l-2 3-15 26 26 5c11 7 25 10 38 7l46 9 18-30z" fill="#76b3e1" />
      <path d="M163 35S110-4 69 5l-3 1c-6 2-11 5-14 9l-2 3-15 26 26 5c11 7 25 10 38 7l46 9 18-30z" opacity=".3"
         fill="url(#a)" />
      <path d="m52 35-4 1c-17 5-22 21-13 35 10 13 31 20 48 15l62-21S92 26 52 35z" fill="#518ac8" />
      <path d="m52 35-4 1c-17 5-22 21-13 35 10 13 31 20 48 15l62-21S92 26 52 35z" opacity=".3" fill="url(#b)" />
      <path d="M134 80a45 45 0 0 0-48-15L24 85 4 120l112 19 20-36c4-7 3-15-2-23z" fill="url(#c)" />
      <path d="M114 115a45 45 0 0 0-48-15L4 120s53 40 94 30l3-1c17-5 23-21 13-34z" fill="url(#d)" />
   </g>
   <!-- #endregion Solid shape -->
   <!-- #region Plus shape -->
   <g transform="rotate(164 90 90)">
      <path
         d="M 91.780524,16.65368 C 100.38326,16.472904 90.515115,80.923042 98.937079,89.923611 107.35904,98.924179 159.6986,61.114185 159.1563,88.6582 158.9755,97.839531 98.937079,89.923611 90.153571,99.285712 81.370051,108.64781 114.6964,163.01277 88.888159,163.55509 80.285417,163.73588 90.153571,99.285712 81.7316,90.285154 73.309627,81.284589 20.970073,119.09459 21.51239,91.550563 21.693166,82.369225 81.7316,90.285154 90.515115,80.923042 99.298638,71.560932 65.972293,17.195998 91.780524,16.65368 Z"
         fill="url(#e)" />
   </g>
   <!-- #endregion Plus shape -->
</svg>